<svg width="120" height="21" viewBox="0 0 120 21" fill="none" xmlns="http://www.w3.org/2000/svg">
<path d="M0.885597 20.1182L0.125261 17.876C0.0513571 17.6568 0.125261 17.4151 0.308142 17.2748L17.2647 4.28644C17.6744 3.97328 17.4526 3.31817 16.9366 3.31817H0.539876C0.241754 3.31817 0 3.07641 0 2.77829V0.539876C0 0.241754 0.241754 0 0.539876 0H23.0355C23.2673 0 23.4727 0.147808 23.5466 0.367015L24.3069 2.60919C24.3808 2.8284 24.3069 3.07015 24.124 3.21044L7.16744 16.1988C6.75784 16.5119 6.97955 17.167 7.49563 17.167H23.8911C24.1892 17.167 24.4309 17.4088 24.4309 17.7069V19.9453C24.4309 20.2435 24.1892 20.4852 23.8911 20.4852H1.39666C1.16493 20.4852 0.959501 20.3374 0.885597 20.1194V20.1182Z" fill="white"/>
<path d="M80.6746 20.276L62.0971 5.45387C61.7438 5.17203 61.2215 5.42381 61.2215 5.876V19.9466C61.2215 20.2447 60.9797 20.4865 60.6816 20.4865H58.4432C58.1451 20.4865 57.9033 20.2447 57.9033 19.9466V1.64969C57.9033 1.44301 58.0223 1.25386 58.209 1.16368L60.2908 0.161587C60.4774 0.071399 60.6992 0.096451 60.8607 0.22547L79.4382 15.0476C79.7915 15.3295 80.3138 15.0777 80.3138 14.6255V0.539876C80.3138 0.241754 80.5556 0 80.8537 0H83.0921C83.3902 0 83.632 0.241754 83.632 0.539876V18.8518C83.632 19.0585 83.513 19.2476 83.3263 19.3378L81.2445 20.3399C81.0579 20.4301 80.8361 20.405 80.6746 20.276Z" fill="white"/>
<path d="M52.159 20.4852H30.5101C30.3673 20.4852 30.2295 20.4288 30.1281 20.3274L28.7853 18.9846C28.6838 18.8831 28.6274 18.7466 28.6274 18.6025V1.88268C28.6274 1.73988 28.6838 1.60209 28.7853 1.50063L30.1281 0.157829C30.2295 0.0563678 30.3661 0 30.5101 0H52.4747C52.6175 0 52.7553 0.0563678 52.8567 0.157829L54.1995 1.50063C54.301 1.60209 54.3573 1.73862 54.3573 1.88268V10.0184C54.3573 10.1612 54.301 10.299 54.1995 10.4004L52.8567 11.7432C52.7553 11.8447 52.6187 11.9011 52.4747 11.9011H32.4842C32.1861 11.9011 31.9444 12.1428 31.9444 12.4409V16.6284C31.9444 16.9265 32.1861 17.1683 32.4842 17.1683H52.159C52.4571 17.1683 52.6989 17.41 52.6989 17.7082V19.9466C52.6989 20.2447 52.4571 20.4865 52.159 20.4865V20.4852ZM32.4842 8.58415H50.4993C50.7974 8.58415 51.0392 8.34239 51.0392 8.04427V3.85679C51.0392 3.55867 50.7974 3.31692 50.4993 3.31692H32.4842C32.1861 3.31692 31.9444 3.55867 31.9444 3.85679V8.04427C31.9444 8.34239 32.1861 8.58415 32.4842 8.58415Z" fill="white"/>
<path d="M89.9565 0H87.7193C87.4212 0 87.1794 0.241711 87.1794 0.539876V19.9453C87.1794 20.2435 87.4212 20.4852 87.7193 20.4852H89.9565C90.2546 20.4852 90.4964 20.2435 90.4964 19.9453V0.539876C90.4964 0.241711 90.2546 0 89.9565 0Z" fill="white"/>
<path d="M110.027 9.89563L119.062 2.97495C119.299 2.79332 119.344 2.45512 119.162 2.21837L117.801 0.442171C117.619 0.205428 117.281 0.160333 117.044 0.341962L107.13 7.93529C106.756 8.22089 106.238 8.22089 105.865 7.93529L95.9501 0.341962C95.7134 0.160333 95.3752 0.205428 95.1935 0.442171L93.832 2.21837C93.6503 2.45512 93.6954 2.79332 93.9322 2.97495L102.967 9.89563C103.1 9.99835 103.179 10.1562 103.179 10.324C103.179 10.4919 103.101 10.651 102.967 10.7524L94.0098 17.613C93.7731 17.7946 93.728 18.1328 93.9096 18.3696L95.2712 20.1458C95.4528 20.3825 95.791 20.4276 96.0278 20.246L105.863 12.7128C106.237 12.4272 106.755 12.4272 107.128 12.7128L116.964 20.246C117.201 20.4276 117.539 20.3825 117.721 20.1458L119.082 18.3696C119.264 18.1328 119.219 17.7946 118.982 17.613L110.024 10.7524C109.892 10.6497 109.813 10.4919 109.813 10.324C109.813 10.1562 109.89 9.99835 110.024 9.89563H110.027Z" fill="white"/>
</svg>
